<svg xmlns="http://www.w3.org/2000/svg" version="1.1" xmlns:xlink="http://www.w3.org/1999/xlink" xmlns:svgjs="http://svgjs.dev/svgjs" width="100%" height="100%" viewBox="0 0 1000 600"><rect width="1000" height="600" x="0" y="0" fill="#ffffff"/><g><rect width="333.3333333333333" height="333.3333333333333" rx="13.333333333333334" ry="13.333333333333334" y="77.7777739630807" fill="#8aaae5" transform="matrix(2.2499999313354513,0,0,2.2499999313354517,0,-249.99999084472722)" x="55.55555725097656"/><path d="M170.29436210874587 275.1036478480652L179.0319239937851 274.88598616409627L179.0319239937851 319.4444423251682L65.50580854083766 319.4444423251682L65.50580854083766 311.6086217022861L76.48217631812894 311.39096001831706L76.48217631812894 177.49792985113237L65.50580854083766 177.2802681671634L65.50580854083766 169.44444754428122L138.04933835506017 169.44444754428122L138.04933835506017 177.2802681671634L113.64013522425662 177.49792985113237L113.64013522425662 310.9245421240979Q141.6252088774072 301.098671819214 169.82794421452672 286.2976773093254L169.82794421452672 286.2976773093254L170.29436210874587 275.1036478480652ZM370.20107157108475 311.39096001831706L378.93863345612397 311.6086217022861L378.93863345612397 319.4444423251682L316.9361480512548 319.4444423251682L316.9361480512548 311.6086217022861L329.03191877467214 311.39096001831706L318.49087436531875 196.5277799352747L275.30057736062304 294.3822541424579L268.3354034736167 294.3822541424579L222.00455931451188 195.87479488336785L217.74460921397673 311.39096001831706L229.840379937394 311.6086217022861L229.840379937394 319.4444423251682L180.804311991818 319.4444423251682L180.804311991818 311.6086217022861L189.5418738768572 311.39096001831706L211.02819153722058 177.49792985113237L198.71475912983433 177.2802681671634L198.71475912983433 169.44444754428122L250.20729465163137 169.44444754428122L286.24585061163305 242.6409624104106L317.37147141919274 169.44444754428122L363.73341010457887 169.44444754428122L363.73341010457887 177.2802681671634L351.85530106513045 177.49792985113237L370.20107157108475 311.39096001831706Z " fill="#ffffff" transform="matrix(2.2499999313354513,0,0,2.2499999313354517,0,-249.99999084472722)"/><path d="MNaN 244.4444461398655 " fill="#8aaae5" transform="matrix(2.2499999313354513,0,0,2.2499999313354517,0,-249.99999084472722)"/></g></svg>